<svg xmlns="http://www.w3.org/2000/svg" width="47" height="56" viewBox="0 0 47 56" fill="none">
<path d="M29.8047 39.6327C30.5078 39.6327 31.0938 39.047 31.0938 38.3441V36.3919H31.6406C32.3438 36.3919 32.9297 35.8062 32.9297 35.1034C32.9297 34.4005 32.3438 33.8148 31.6406 33.8148H31.0938V26.3181C31.0938 25.7714 30.7422 25.2638 30.1953 25.1076C29.6485 24.9515 29.1016 25.1467 28.7891 25.6152L22.6173 34.4396C22.3438 34.83 22.3048 35.3376 22.5391 35.7671C22.7735 36.1966 23.2032 36.4309 23.672 36.4309H28.5157V38.3832C28.5157 39.086 29.1016 39.6327 29.8047 39.6327ZM26.0938 33.8929L28.5157 30.3788V33.8929H26.0938Z" fill="white"></path>
<path d="M23.2421 38.3829C23.2421 37.6801 22.6562 37.0944 21.9531 37.0944H17.8906L21.8359 33.307C21.8749 33.268 21.914 33.2289 21.9531 33.1899C22.7734 32.2528 23.2421 31.0423 23.2421 29.7929C23.2421 27.1378 21.1328 25.0293 18.4375 25.0293C16.0156 25.0293 13.4375 26.4349 13.4375 30.3005C13.4375 31.0033 14.0234 31.589 14.7266 31.589C15.4297 31.589 16.0156 31.0033 16.0156 30.3005C16.0156 28.4263 16.7968 27.5673 18.4765 27.5673C19.7656 27.5673 20.7421 28.5044 20.7421 29.7929C20.7421 30.4176 20.5078 31.0033 20.1171 31.4328L13.8672 37.4458C13.4766 37.7973 13.3594 38.3439 13.5547 38.8515C13.75 39.32 14.2187 39.6324 14.7266 39.6324H21.9531C22.6952 39.6324 23.2421 39.0858 23.2421 38.3829Z" fill="white"></path>
<path d="M4.02341 41.8188H5.54683C7.77338 41.8188 9.57024 40.0227 9.57024 37.7971V28.5823C9.57024 26.3566 7.77338 24.5605 5.54683 24.5605H0.937493C0.429684 24.5605 0 24.9901 0 25.5367V37.7971C0 40.0227 1.79686 41.8188 4.02341 41.8188Z" fill="white"></path>
<path d="M45.3899 24.5605H40.8197C38.5931 24.5605 36.7963 26.3566 36.7963 28.5823V37.758C36.7963 39.9836 38.5931 41.7797 40.8197 41.7797H42.3431C42.6947 41.7797 43.0072 41.7407 43.3196 41.6626L30.1947 53.7277H26.4057V52.4002C26.4057 51.8926 25.976 51.4631 25.4682 51.4631H20.8979C20.3901 51.4631 19.9604 51.8926 19.9604 52.4002V54.6648C19.9604 55.1724 20.3901 55.6019 20.8979 55.6019H24.687H25.5073H30.6244C30.8588 55.6019 31.0932 55.5238 31.2885 55.3676L46.0931 41.7016C46.2884 41.5064 46.4056 41.2721 46.4056 40.9988V37.719V26.2395V25.5367C46.3665 24.9901 45.9368 24.5605 45.3899 24.5605Z" fill="white"></path>
<path d="M1.24999 23.5456C1.7578 23.6627 2.26561 23.3503 2.3828 22.8427L2.42186 22.6475C3.74998 17.2202 6.52339 12.808 10.2343 9.72337C14.0233 6.6778 18.5546 5.07692 23.1639 5.07692C27.7732 5.07692 32.3435 6.6778 36.0935 9.72337C39.8044 12.808 42.5778 17.2202 43.9059 22.6475L43.945 22.8818C44.0622 23.3113 44.4137 23.5846 44.8434 23.5846C45.3512 23.5846 45.7809 23.1551 45.7809 22.6475C45.7809 19.68 45.195 16.7126 44.0622 13.9794C42.9294 11.2462 41.2497 8.74723 39.1403 6.63875C37.1091 4.53028 34.6091 2.85132 31.8357 1.71899C29.1013 0.586663 26.1326 0.000976562 23.1639 0.000976562C20.1952 0.000976562 17.2264 0.586663 14.4921 1.71899C11.7577 2.85132 9.25775 4.53028 7.14839 6.63875C5.07809 8.74723 3.39842 11.2462 2.22655 13.9794C1.09375 16.7126 0.507812 19.68 0.507812 22.6475C0.507813 23.077 0.82031 23.4675 1.24999 23.5456Z" fill="white"></path>
</svg>