<svg xmlns="http://www.w3.org/2000/svg" width="67" height="34" viewBox="0 0 67 34" fill="none">
<path d="M60.8303 5.25158C60.6677 4.88807 60.261 4.64574 59.8544 4.64574H52.5759V1.0511C52.5759 0.445258 52.088 0.000976562 51.5187 0.000976562H13.9471C13.3371 0.000976562 12.8898 0.485647 12.8898 1.0511V4.64574H9.35225C8.45769 4.64574 7.68511 5.37274 7.68511 6.3017C7.68511 7.14987 8.37636 7.87688 9.23027 7.91727C9.27093 7.91727 9.31159 7.91727 9.35225 7.91727H23.0147C23.0553 7.91727 23.096 7.91727 23.1367 7.91727C23.6246 7.95765 23.9906 8.40194 23.9906 8.88661C23.9906 9.41167 23.5433 9.85595 23.0147 9.85595H12.8492V11.0676H5.48937C4.5948 11.0676 3.82222 11.7946 3.82222 12.7236C3.82222 13.5718 4.51348 14.2988 5.36738 14.3392C5.40804 14.3392 5.4487 14.3392 5.48937 14.3392H19.1518C19.1924 14.3392 19.2331 14.3392 19.2738 14.3392C19.7617 14.3795 20.1277 14.8238 20.1277 15.3085C20.1277 15.8336 19.6804 16.2778 19.1518 16.2778H12.8492V17.4895H1.66714C0.772577 17.4895 0 18.2165 0 19.1455C0 19.9936 0.691253 20.7207 1.54515 20.761C1.58582 20.761 1.62648 20.761 1.66714 20.761H15.3296C15.3702 20.761 15.4109 20.761 15.4515 20.761C15.9395 20.8014 16.3054 21.2457 16.3054 21.7304C16.3054 22.2554 15.8582 22.6997 15.3296 22.6997H12.8898V27.5868C12.8898 28.1927 13.3778 28.6369 13.9471 28.6369H16.7934C16.7934 25.1231 19.6804 22.2958 23.1773 22.2958C26.7149 22.2958 29.5612 25.1635 29.5612 28.6369H49.4449C49.4449 25.1231 52.3319 22.2958 55.8289 22.2958C59.3665 22.2958 62.2128 25.1635 62.2128 28.6369H65.0591C65.6691 28.6369 66.1164 28.1523 66.1164 27.5868V16.5606C66.1164 16.2374 66.035 15.9143 65.913 15.6316L60.8303 5.25158ZM62.7007 16.6009H53.6738C53.0639 16.6009 52.6166 16.1163 52.6166 15.5508V8.24038C52.6166 7.63454 53.1045 7.19026 53.6738 7.19026H58.2279C58.6346 7.19026 59.0005 7.43259 59.2038 7.7961L63.2294 15.8739C63.3513 16.1567 63.1074 16.6009 62.7007 16.6009Z" fill="white"></path>
<path d="M60.3018 28.7579C60.3018 26.3345 58.3094 24.3555 55.8697 24.3555C53.4299 24.3555 51.4375 26.3345 51.4375 28.7579C51.4375 31.1812 53.4299 33.1603 55.8697 33.1603C58.3094 33.1199 60.3018 31.1812 60.3018 28.7579Z" fill="white"></path>
<path d="M27.6094 28.7579C27.6094 26.3345 25.617 24.3555 23.1773 24.3555C20.7376 24.3555 18.7451 26.3345 18.7451 28.7579C18.7451 31.1812 20.7376 33.1603 23.1773 33.1603C25.617 33.1199 27.6094 31.1812 27.6094 28.7579Z" fill="white"></path>
</svg>