<svg xmlns="http://www.w3.org/2000/svg" width="51" height="39" viewBox="0 0 51 39" fill="none">
<path d="M35.2942 18.8431C35.2942 16.9002 36.88 15.3238 38.8346 15.3238C40.7893 15.3238 42.3751 16.9002 42.3751 18.8431V21.8491H45.3624V18.8431C45.3624 15.2505 42.412 12.3545 38.8346 12.3545C35.2204 12.3545 32.3069 15.2872 32.3069 18.8431V21.8491H35.2942V18.8431Z" fill="white"></path>
<path d="M47.3171 23.6455H30.3154C29.6516 23.6455 29.0984 24.1954 29.0984 24.8552V37.1725C29.0984 37.8324 29.6516 38.3823 30.3154 38.3823H47.3171C47.9809 38.3823 48.5341 37.8324 48.5341 37.1725V24.8552C48.5341 24.1954 47.9809 23.6455 47.3171 23.6455ZM40.3099 32.5169C40.3099 33.3234 39.6461 34.0199 38.7978 34.0199C37.9865 34.0199 37.2857 33.36 37.2857 32.5169V29.5475C37.2857 28.7411 37.9496 28.0445 38.7978 28.0445C39.6092 28.0445 40.3099 28.7044 40.3099 29.5475V32.5169Z" fill="white"></path>
<path d="M45.8049 0.000976562H4.53623C2.0284 0.000976562 0 1.98054 0 4.43667V31.0875C0 33.5436 2.0284 35.5598 4.53623 35.5598H25.8528C26.3323 35.5598 26.738 35.1566 26.738 34.68C26.738 34.2035 26.3323 33.8002 25.8528 33.8002H4.53623C3.02416 33.8002 1.80712 32.5905 1.80712 31.1241V11.1819H48.5709V20.933C48.5709 21.4096 48.9766 21.8129 49.456 21.8129C49.9355 21.8129 50.3411 21.4096 50.3411 20.933V4.43667C50.3411 1.98054 48.3127 0.000976562 45.8049 0.000976562ZM1.80712 6.59953V4.47333C1.80712 3.00698 3.02416 1.79725 4.53623 1.79725H45.8049C47.317 1.79725 48.534 3.00698 48.534 4.47333V6.59953H1.80712Z" fill="white"></path>
<path d="M6.9337 28.5576C6.45426 28.5576 6.04858 28.9609 6.04858 29.4374C6.04858 29.914 6.45426 30.3172 6.9337 30.3172H9.92098C10.4004 30.3172 10.8061 29.914 10.8061 29.4374C10.8061 28.9609 10.4004 28.5576 9.92098 28.5576H6.9337Z" fill="white"></path>
</svg>