<svg xmlns="http://www.w3.org/2000/svg" width="53" height="59" viewBox="0 0 53 59" fill="none">
<path d="M33.5177 6.36861C33.0326 6.25492 32.5475 6.52021 32.4355 7.01291C32.2862 7.50561 32.5848 7.9983 33.0699 8.1499C38.6302 9.74169 43.5188 13.4559 46.6161 18.307C49.6761 23.1961 50.8703 29.2221 49.9374 34.8692C49.0417 40.5162 46.019 45.7464 41.6529 49.2711C39.4512 51.0524 36.9882 52.3788 34.3387 53.2126C31.6891 54.0464 28.9277 54.3875 26.1662 54.2359C20.6432 53.9327 15.3441 51.5072 11.5378 47.5277C7.69408 43.5861 5.3804 38.2423 5.1565 32.7468C4.85796 27.2892 6.68651 21.7938 10.0451 17.6248C13.1051 13.797 17.5459 11.0682 22.3225 10.0449V11.9778C22.3225 12.3568 22.5464 12.6979 22.8823 12.8495C22.9942 12.8874 23.1062 12.9253 23.2181 12.9253C23.442 12.9253 23.7032 12.8495 23.8525 12.66L29.3008 7.12661C29.674 6.74761 29.674 6.17912 29.3008 5.83802L23.8898 0.266764C23.6286 0.00146566 23.2554 -0.0743337 22.8823 0.077265C22.5464 0.228864 22.3225 0.569961 22.3225 0.948958V3.79144C15.7173 5.04213 9.6719 8.87 5.64162 14.2139C3.62649 16.9047 2.05916 19.9746 1.12622 23.1961C0.193287 26.4176 -0.179887 29.8285 0.0813348 33.1637C0.342556 36.4989 1.20086 39.7961 2.5816 42.7902C3.99966 45.8222 5.94016 48.551 8.29116 50.825C12.9931 55.4487 19.4491 58.1396 25.905 58.2912C29.1516 58.367 32.3609 57.8743 35.4209 56.8131C38.4809 55.7519 41.317 54.0843 43.7427 51.9998C48.6312 47.793 51.9152 41.729 52.7362 35.324C53.6318 28.9568 52.0644 22.2865 48.5566 17.0184C45.0115 11.7504 39.5631 7.8846 33.5177 6.36861Z" fill="white"></path>
<path d="M27.062 30.7006L32.0999 27.7823L20.2703 20.8467L15.2324 23.8029L27.062 30.7006Z" fill="white"></path>
<path d="M39.7869 25.3945L34.7864 28.3128V33.5809C34.7864 34.0736 34.3759 34.4905 33.8908 34.4905C33.4056 34.4905 32.9952 34.0736 32.9952 33.5809V29.374L27.9946 32.3302V46.2015L39.0033 39.7585C39.5257 39.4553 39.8242 38.8868 39.8242 38.3183V25.3945H39.7869Z" fill="white"></path>
<path d="M22.0991 19.7848L33.9287 26.7205L38.9293 23.8022L27.9206 17.3592C27.6594 17.2076 27.3609 17.1318 27.0996 17.1318C26.8011 17.1318 26.5399 17.2076 26.2787 17.3592L22.0991 19.7848Z" fill="white"></path>
<path d="M26.1665 32.3302L14.3369 25.3945V38.2804C14.3369 38.8868 14.6728 39.4553 15.1579 39.7206L26.1665 46.1636V32.3302Z" fill="white"></path>
</svg>