<svg xmlns="http://www.w3.org/2000/svg" width="21" height="20" viewBox="0 0 21 20" fill="none">
<path d="M1.58984 11.2148H18.5084L20.9998 3.08951H1.58984V11.2148Z" fill="currentcolor"></path>
<path d="M3.57402 11.2148H1.58984V12.9795H3.57402V11.2148Z" fill="currentcolor"></path>
<path d="M1.58984 12.8027V14.5704H17.4769L18.0184 12.8027H1.58984Z" fill="currentcolor"></path>
<path d="M5.36335 17.6608C5.36335 18.5873 4.51691 19.3371 3.47171 19.3371C2.4265 19.3371 1.58691 18.5873 1.58691 17.6608C1.58691 16.7343 2.42993 15.9846 3.47171 15.9846C4.51348 15.9846 5.36335 16.7343 5.36335 17.6608Z" fill="currentcolor"></path>
<path d="M15.4893 17.6608C15.4893 18.5873 14.6463 19.3371 13.6011 19.3371C12.5559 19.3371 11.7129 18.5873 11.7129 17.6608C11.7129 16.7343 12.5593 15.9846 13.6011 15.9846C14.6429 15.9846 15.4893 16.7343 15.4893 17.6608Z" fill="currentcolor"></path>
<path d="M1.78541 0.968262C0.801893 0.968262 0 1.68144 0 2.55614C0 3.43085 0.801893 4.14707 1.78541 4.14707C2.76893 4.14707 3.57425 3.43694 3.57425 2.55614C3.57425 1.67534 2.77578 0.968262 1.78541 0.968262ZM1.78541 3.05293C1.48042 3.05293 1.23025 2.83349 1.23025 2.55614C1.23025 2.2788 1.48042 2.06241 1.78541 2.06241C2.0904 2.06241 2.34399 2.28489 2.34399 2.55614C2.34399 2.82739 2.09383 3.05293 1.78541 3.05293Z" fill="currentcolor"></path>
</svg>