<svg width="19" height="19" viewBox="0 0 19 19" fill="none" xmlns="http://www.w3.org/2000/svg">
<path d="M0.000206523 10.3272C0.000206523 9.80421 0.000206523 9.28101 0.000206523 8.75803C0.0045435 8.72788 0.0107392 8.69774 0.0130109 8.66739C0.0307719 8.43119 0.0305654 8.1921 0.0681525 7.9592C0.184631 7.238 0.406024 6.54571 0.683797 5.87098C0.95145 5.22101 1.27631 4.6016 1.68006 4.02514C1.97105 3.60973 2.31161 3.23664 2.66641 2.87594C3.15195 2.38268 3.65793 1.91297 4.24218 1.53534C5.15894 0.94277 6.15025 0.52178 7.20516 0.248209C7.66406 0.129283 8.12502 0.0138672 8.6025 0.00478255C9.0015 -0.0028568 9.40091 3.37635e-05 9.80012 0.00395667C10.43 0.0101507 11.0564 0.0456634 11.6716 0.201341C12.7044 0.462937 13.6763 0.864519 14.5791 1.43251C15.6098 2.08103 16.4855 2.89638 17.205 3.87793C17.884 4.80415 18.3677 5.82617 18.6882 6.92789C18.8179 7.37365 18.9326 7.82128 18.9648 8.28645C18.9757 8.44378 18.9883 8.60091 19.0001 8.75803V10.3272C18.9958 10.3573 18.9896 10.3875 18.9873 10.418C18.9745 10.5859 18.9805 10.7575 18.9468 10.9208C18.8578 11.3502 18.7702 11.7816 18.6488 12.2025C18.2961 13.4257 17.7079 14.5297 16.9093 15.5201C16.1563 16.4537 15.2565 17.2166 14.2108 17.8063C13.2451 18.351 12.2144 18.7187 11.126 18.921C10.6303 19.0131 10.1262 18.9993 9.62396 18.9995C9.0046 18.9997 8.38441 19.0098 7.77124 18.9058C7.08063 18.7885 6.42017 18.5651 5.77665 18.2942C4.28555 17.6665 3.04001 16.712 2.03384 15.4468C1.2571 14.47 0.696601 13.3788 0.334773 12.1854C0.193305 11.7184 0.0780656 11.2452 0.0334567 10.7575C0.0202392 10.6142 0.0111522 10.4707 0 10.3272H0.000206523ZM16.7054 13.837C16.7959 13.6561 16.8832 13.4771 16.9743 13.3003C17.515 12.2504 17.837 11.1427 17.8607 9.95596C17.8729 9.34708 17.8694 8.73903 17.7826 8.13429C17.7035 7.58157 17.5579 7.04743 17.3481 6.53002C17.0078 5.69073 16.5722 4.90656 15.9956 4.20518C15.3335 3.39996 14.553 2.73327 13.6445 2.22061C12.5432 1.59913 11.3728 1.20726 10.0979 1.15626C9.55105 1.13437 9.00274 1.09721 8.46 1.16906C7.52445 1.29294 6.63392 1.57849 5.78346 1.98792C4.96026 2.38434 4.23702 2.92033 3.59143 3.56286C2.98054 4.1707 2.46423 4.84937 2.06543 5.61578C1.52414 6.65576 1.20589 7.75893 1.12679 8.92878C1.0797 9.62458 1.11977 10.3167 1.24988 11.0021C1.39403 11.7611 1.63339 12.4895 1.97023 13.1853C2.07597 13.404 2.18315 13.6222 2.2955 13.8529C2.34465 13.8068 2.38513 13.7711 2.42334 13.7331C2.74778 13.4106 3.12304 13.1571 3.51543 12.9268C4.44932 12.3789 5.45385 11.9884 6.46271 11.6073C6.53686 11.5792 6.5794 11.5984 6.63475 11.6434C6.89331 11.8538 7.15209 12.0642 7.41747 12.2657C8.24645 12.8955 9.19542 13.0036 10.1896 12.8767C10.6219 12.8215 11.017 12.6378 11.3749 12.3993C11.7226 12.1674 12.0434 11.8947 12.3734 11.6366C12.4273 11.5945 12.4703 11.5774 12.5384 11.6056C13.2222 11.8904 13.9132 12.1586 14.5904 12.4582C15.134 12.6987 15.6544 12.9894 16.1296 13.3505C16.3262 13.5 16.508 13.6687 16.7058 13.8365L16.7054 13.837Z" fill="currentcolor"></path>
<path d="M13.2605 7.23636C13.2516 8.37359 12.8844 9.39004 12.262 10.3225C11.8553 10.9315 11.3481 11.4401 10.6914 11.7803C10.0218 12.1272 9.32854 12.1687 8.61934 11.9083C7.89692 11.6432 7.34633 11.156 6.89405 10.551C6.40707 9.8996 6.06858 9.17345 5.88229 8.38185C5.67226 7.48867 5.67474 6.59734 6.03429 5.74132C6.57414 4.45585 7.51857 3.61469 8.90393 3.36734C10.1181 3.15055 11.1804 3.53025 12.0629 4.38668C12.6321 4.93878 12.9974 5.61434 13.1635 6.38881C13.2227 6.66568 13.2298 6.95371 13.2607 7.23657L13.2605 7.23636Z" fill="currentcolor"></path>
</svg>